
        <svg xmlns="http://www.w3.org/2000/svg" xmlns:xlink="http://www.w3.org/1999/xlink" version="1.1" width="3162.0201430448105" height="852.5176367308287" viewBox="0 0 3162.0201430448105 852.5176367308287">
			
			<g transform="scale(8.101007152240548) translate(10, 10)">
				<defs id="SvgjsDefs1955"/><g id="SvgjsG1956" featureKey="symbolFeature-0" transform="matrix(0.9957325746799432,0,0,0.9957325746799432,-11.94879089615932,-7.367123987732369)" fill="#000"><path xmlns="http://www.w3.org/2000/svg" d="M45.562,31.762c0,0-0.057-0.001-0.167-0.003c-0.11-0.003-0.275-0.002-0.482-0.021c-0.413-0.038-1.034-0.071-1.794-0.194  c-0.765-0.115-1.68-0.298-2.718-0.568c-0.519-0.135-1.061-0.305-1.638-0.486c-0.571-0.191-1.165-0.415-1.788-0.659  c-0.614-0.258-1.249-0.549-1.908-0.871c-0.649-0.337-1.315-0.714-2-1.138c-0.674-0.437-1.356-0.931-2.053-1.496  c-0.688-0.572-1.365-1.245-2.038-2.034c-0.338-0.4-0.657-0.834-0.96-1.328c-0.304-0.487-0.596-1.021-0.848-1.624  c-0.523-1.179-0.835-2.693-0.727-4.288c0.059-0.795,0.225-1.589,0.476-2.333c0.265-0.743,0.617-1.406,0.999-2.016l0.296-0.437  l0.075-0.108l0.104-0.138l0.092-0.123l0.092-0.122c0.03-0.04,0.057-0.077,0.117-0.15l0.312-0.382c0.4-0.472,0.797-0.898,1.3-1.326  c0.974-0.841,2.208-1.67,3.772-2.152c0.774-0.235,1.618-0.359,2.449-0.366c0.832-0.007,1.649,0.109,2.392,0.31  c0.745,0.198,1.418,0.481,2.01,0.812c0.594,0.327,1.116,0.688,1.585,1.06c0.941,0.74,1.657,1.543,2.256,2.338  c0.305,0.396,0.572,0.792,0.828,1.184c0.249,0.393,0.469,0.792,0.673,1.183c0.408,0.783,0.764,1.542,1.038,2.3  c0.572,1.5,0.931,2.933,1.173,4.254c0.24,1.323,0.355,2.537,0.396,3.612c0.041,1.076,0.013,2.011-0.048,2.781  c-0.047,0.767-0.162,1.376-0.213,1.783c-0.028,0.204-0.051,0.442-0.071,0.548c-0.021,0.106-0.016,0.239-0.016,0.239l-0.504,0.103  c0,0-0.062-0.277-0.147-0.649c-0.089-0.371-0.226-0.955-0.413-1.641c-0.186-0.687-0.431-1.536-0.741-2.476s-0.697-1.996-1.152-3.122  c-0.459-1.124-1.011-2.324-1.688-3.531c-0.681-1.202-1.483-2.431-2.484-3.53c-0.5-0.548-1.051-1.063-1.66-1.494  c-0.609-0.427-1.279-0.774-1.988-0.941c-0.707-0.17-1.445-0.146-2.137,0.083c-0.695,0.222-1.333,0.644-1.903,1.152  c-0.285,0.254-0.551,0.54-0.809,0.826c-0.123,0.144-0.247,0.287-0.374,0.453l-0.095,0.12l-0.04,0.052l-0.041,0.057l-0.162,0.23  c-0.415,0.622-0.685,1.316-0.761,2.033c-0.069,0.718,0.042,1.451,0.295,2.141c0.245,0.693,0.619,1.343,1.036,1.949  c0.849,1.21,1.89,2.243,2.929,3.152c1.045,0.909,2.102,1.695,3.103,2.385c2.011,1.367,3.758,2.416,5.007,3.1  c1.247,0.688,1.979,1.039,1.979,1.039L45.562,31.762z"/><path xmlns="http://www.w3.org/2000/svg" d="M56.56,32.884c0,0,0.055,0.015,0.161,0.044c0.106,0.027,0.265,0.074,0.468,0.113c0.408,0.08,1.013,0.222,1.777,0.316  c0.767,0.104,1.696,0.185,2.768,0.216c0.536,0.016,1.104,0.004,1.708-0.008c0.603-0.024,1.235-0.073,1.901-0.132  c0.661-0.075,1.353-0.177,2.076-0.302c0.717-0.142,1.462-0.317,2.238-0.533c0.77-0.23,1.562-0.514,2.389-0.862  c0.821-0.356,1.659-0.812,2.526-1.382c0.437-0.29,0.865-0.617,1.295-1.006c0.428-0.383,0.857-0.813,1.268-1.322  c0.833-0.985,1.557-2.352,1.898-3.913c0.166-0.779,0.229-1.588,0.196-2.373c-0.046-0.787-0.198-1.523-0.395-2.215l-0.162-0.502  l-0.042-0.125l-0.061-0.161l-0.054-0.143l-0.055-0.144c-0.018-0.046-0.033-0.089-0.069-0.177l-0.193-0.455  c-0.252-0.565-0.515-1.085-0.876-1.636c-0.7-1.081-1.652-2.221-3.019-3.123c-0.679-0.443-1.453-0.797-2.249-1.036  c-0.798-0.24-1.614-0.357-2.384-0.372c-0.771-0.019-1.496,0.064-2.156,0.216c-0.662,0.147-1.264,0.348-1.818,0.574  c-1.11,0.447-2.023,1.017-2.82,1.613c-0.404,0.295-0.771,0.601-1.126,0.905c-0.349,0.307-0.673,0.629-0.978,0.946  c-0.61,0.638-1.165,1.267-1.64,1.918c-0.969,1.281-1.715,2.555-2.317,3.756c-0.601,1.202-1.051,2.336-1.391,3.357  c-0.341,1.021-0.575,1.927-0.732,2.683c-0.17,0.749-0.229,1.367-0.294,1.772c-0.03,0.204-0.074,0.439-0.086,0.546  c-0.009,0.107-0.052,0.234-0.052,0.234l0.455,0.24c0,0,0.137-0.249,0.323-0.582c0.188-0.331,0.485-0.853,0.856-1.459  c0.371-0.607,0.844-1.354,1.404-2.169c0.561-0.815,1.229-1.722,1.98-2.675c0.755-0.95,1.62-1.948,2.609-2.917  c0.989-0.963,2.104-1.918,3.373-2.693c0.632-0.386,1.306-0.727,2.012-0.969c0.703-0.24,1.444-0.385,2.172-0.347  c0.726,0.036,1.428,0.266,2.027,0.678c0.605,0.408,1.101,0.991,1.505,1.639c0.202,0.323,0.378,0.672,0.545,1.019  c0.079,0.173,0.157,0.345,0.232,0.541l0.058,0.142l0.023,0.061l0.022,0.066l0.092,0.267c0.225,0.714,0.289,1.455,0.161,2.166  c-0.135,0.708-0.446,1.38-0.883,1.972c-0.43,0.597-0.97,1.116-1.541,1.581c-1.153,0.925-2.441,1.625-3.693,2.207  c-1.258,0.58-2.493,1.038-3.646,1.42c-2.314,0.75-4.285,1.268-5.676,1.574c-1.39,0.312-2.19,0.443-2.19,0.443L56.56,32.884z"/><path xmlns="http://www.w3.org/2000/svg" d="M45.679,37h10.315c0,0,0.215-5.05-5.05-5.05S45.679,37,45.679,37z"/><rect xmlns="http://www.w3.org/2000/svg" x="62" y="39" width="26" height="19"/><rect xmlns="http://www.w3.org/2000/svg" x="12" y="39" width="28" height="19"/><rect xmlns="http://www.w3.org/2000/svg" x="42" y="38" width="18" height="55"/><rect xmlns="http://www.w3.org/2000/svg" x="16" y="60" width="24" height="33"/><rect xmlns="http://www.w3.org/2000/svg" x="62" y="60" width="21" height="33"/></g><g id="SvgjsG1957" featureKey="nameFeature-0" transform="matrix(2.6765958593164614,0,0,2.6765958593164614,96.00000031907508,-25.907243448940108)" fill="#000"><path d="M13.12 11.399999999999999 l1.16 0 l0 28.6 l-1.16 0 l0 -5.16 c-0.2 -9.16 -4.88 -17.2 -11.96 -22.04 l0 27.2 l-1.16 0 l0 -28.6 l1.16 0 c5.72 3.64 10 9.28 11.96 15.96 l0 -15.96 z M32.715 40 l-1.12 -4.52 l-10.96 0 l-1.12 4.52 l-1.2 0 l7.08 -28.6 l1.44 0 l7.08 28.6 l-1.2 0 z M20.915000000000003 34.28 l10.4 0 l-5.2 -20.88 z M45.99 11.399999999999999 l1.2 0 l-7.12 28.6 l-1.4 0 l-7.12 -28.6 l1.2 0 l6.6 26.6 z M56.98500000000001 12.600000000000001 l-4.6 0 l0 7.88 l4.6 0 l0 1.2 l-4.6 0 l0 17.12 l4.6 0 l0 1.2 l-5.76 0 l0 -28.6 l5.76 0 l0 1.2 z M66.78000000000002 12.600000000000001 l-4.6 0 l0 7.88 l4.6 0 l0 1.2 l-4.6 0 l0 17.12 l4.6 0 l0 1.2 l-5.76 0 l0 -28.6 l5.76 0 l0 1.2 z M83.93500000000002 11.399999999999999 l1.16 0 l0 28.6 l-1.16 0 l0 -5.16 c-0.2 -9.16 -4.88 -17.2 -11.96 -22.04 l0 27.2 l-1.16 0 l0 -28.6 l1.16 0 c5.72 3.64 10 9.28 11.96 15.96 l0 -15.96 z M95.13000000000001 40.56 c-2.36 0 -4.6 -1.12 -6 -3.04 l0.92 -0.68 c1.2 1.6 3.08 2.56 5.08 2.56 c3.4 0 6.2 -2.8 6.2 -6.24 c0 -3.56 -2.72 -6.16 -5.36 -8.72 c-2.56 -2.4 -5.16 -4.92 -5.16 -8.24 c0 -2.96 2.44 -5.4 5.4 -5.4 c1.72 0 3.36 0.84 4.4 2.24 l-0.96 0.68 c-0.8 -1.08 -2.08 -1.76 -3.44 -1.76 c-2.32 0 -4.24 1.92 -4.24 4.24 c0 2.8 2.32 5.04 4.8 7.4 c2.8 2.72 5.72 5.52 5.72 9.56 c0 4.08 -3.32 7.4 -7.36 7.4 z"/></g>
			</g>
		</svg>
	